#!OML:ASF E:\Steps\Project 1\Capture day 1\Session 2\Subject.ASF
:FULLY-SPECIFIED
:DEGREES
453
root -0.24487 17.9803 20.1842 -156.873 -1.1932 181.298
lowerback -22.2624 -2.76559 -8.33076
upperback 0.708913 -1.76558 1.03948
thorax 13.692 -1.52298 5.3565
lowerneck 0.34918 -7.03846 -0.0166655
upperneck 25.9035 -7.58914 1.26185
head 7.98745 -2.56716 0.0532887
rclavicle -6.95746e-015 5.56597e-015
rhumerus -43.0797 -17.3139 -74.9736
rradius 29.7934
rwrist -0.184653
rhand -9.19882 -56.6217
rfingers 7.12502
rthumb 16.7551 634.081
lclavicle -6.95746e-015 5.56597e-015
lhumerus -28.3194 -4.27363 80.9736
lradius 25.8888
lwrist 0.311045
lhand -22.8141 -13.3451
lfingers 7.12502
lthumb 3.6226 16.6039
rfemur -34.9204 6.3279 2.58596
rtibia 12.3428
rfoot -15.8874 -13.7634
rtoes -30.0309
lfemur -22.2589 -10.3296 -16.1271
ltibia 15.1366
lfoot -13.5522 5.52012
ltoes -40.9594
454
root -0.20393 17.9753 20.15 -156.95 -1.39359 181.181
lowerback -22.4408 -2.81386 -8.27905
upperback 0.867859 -1.79321 0.892537
thorax 13.9805 -1.53732 5.14423
lowerneck 0.333252 -7.05005 0.150481
upperneck 25.7388 -7.65591 1.30561
head 7.92929 -2.59409 0.0353324
rclavicle 5.96354e-016 2.22639e-014
rhumerus -42.9699 -17.6936 -75.0628
rradius 29.6429
rwrist 0.275889
rhand -9.73997 -55.4862
rfingers 7.12502
rthumb 16.234 635.173
lclavicle 5.96354e-016 2.22639e-014
lhumerus -28.1026 -4.51724 80.7547
lradius 25.9338
lwrist 0.503234
lhand -22.863 -13.2111
lfingers 7.12502
lthumb 3.57539 16.7387
rfemur -34.6506 6.34227 2.42553
rtibia 12.2007
rfoot -15.9596 -13.6777
rtoes -30.1118
lfemur -22.0896 -10.5722 -16.0674
ltibia 15.1747
lfoot -13.762 5.49704
ltoes -40.5332
455
root -0.160895 17.971 20.1175 -157.033 -1.5843 181.163
lowerback -22.7258 -2.89311 -8.29789
upperback 1.08609 -1.84798 0.916025
thorax 14.4171 -1.58297 5.15879
lowerneck 0.355655 -6.9461 0.0956079
upperneck 25.5525 -7.53761 1.34316
head 7.86482 -2.55478 0.0654428
rclavicle -1.31198e-014 -3.49861e-014
rhumerus -42.6973 -17.7528 -75.1684
rradius 29.559
rwrist 0.172189
rhand -10.3713 -55.5526
rfingers 7.12502
rthumb 15.626 635.058
lclavicle -1.31198e-014 -3.49861e-014
lhumerus -27.8538 -4.50206 80.7142
lradius 26.0212
lwrist 0.583601
lhand -22.089 -13.1986
lfingers 7.12502
lthumb 4.3228 16.7372
rfemur -34.4019 6.56931 2.34218
rtibia 12.0915
rfoot -16.0337 -13.8039
rtoes -30.9477
lfemur -21.9621 -10.7416 -15.8858
ltibia 15.2785
lfoot -13.978 5.44431
ltoes -40.281
456
root -0.115789 17.9645 20.0879 -156.999 -1.76016 181.214
lowerback -22.4547 -2.94125 -8.3815
upperback 0.839655 -1.95517 1.04704
thorax 13.9922 -1.62596 5.32565
lowerneck 0.496726 -6.9656 -0.0279254
upperneck 25.7752 -7.47327 1.21935
head 7.91511 -2.52177 0.0543943
rclavicle 2.38542e-015 7.95139e-016
rhumerus -43.252 -17.33 -75.0494
rradius 29.7304
rwrist -0.618241
rhand -10.506 -55.7711
rfingers 7.12502
rthumb 15.4964 634.83
lclavicle 2.38542e-015 7.95139e-016
lhumerus -28.3753 -4.60323 80.8326
lradius 26.1938
lwrist 0.642891
lhand -22.6435 -12.9541
lfingers 7.12502
lthumb 3.7874 16.992
rfemur -34.3704 6.65904 2.37273
rtibia 12.1039
rfoot -15.7835 -13.7584
rtoes -33.1629
lfemur -21.9183 -10.8515 -15.5794
ltibia 15.2663
lfoot -14.0265 5.43551
ltoes -40.4928
457
root -0.0699096 17.9563 20.0583 -156.925 -1.8742 181.14
lowerback -22.2863 -2.95976 -8.36706
upperback 0.679987 -2.00764 0.976189
thorax 13.71 -1.63381 5.21955
lowerneck 0.521134 -7.0282 -0.0231309
upperneck 25.9372 -7.53693 1.23352
head 7.96714 -2.53548 0.0549147
rclavicle -6.16232e-015 -1.35174e-014
rhumerus -43.6454 -16.9951 -75.2762
rradius 29.9268
rwrist -1.49601
rhand -10.9816 -55.0237
rfingers 7.12502
rthumb 15.0383 635.542
lclavicle -6.16232e-015 -1.35174e-014
lhumerus -28.5638 -4.77273 80.6757
lradius 26.196
lwrist 0.666689
lhand -23.0947 -13.3112
lfingers 7.12502
lthumb 3.35162 16.6422
rfemur -34.4751 6.61519 2.29445
rtibia 12.3003
rfoot -15.3375 -13.4514
rtoes -35.0415
lfemur -21.888 -10.8612 -15.4466
ltibia 15.2691
lfoot -14.0385 5.43669
ltoes -41.2563
458
root -0.0211001 17.9491 20.0256 -156.867 -1.97231 181.041
lowerback -22.8713 -3.02743 -8.40534
upperback 0.990649 -1.99407 0.896007
thorax 14.4137 -1.65686 5.14289
lowerneck 0.437984 -7.00282 -0.0848459
upperneck 25.5893 -7.61849 1.47872
head 7.87756 -2.59285 0.137131
rclavicle 1.03368e-014 -1.51076e-014
rhumerus -43.1534 -17.0436 -75.5686
rradius 29.8898
rwrist -1.56104
rhand -11.0105 -54.812
rfingers 7.12502
rthumb 15.0104 635.752
lclavicle 1.03368e-014 -1.51076e-014
lhumerus -27.93 -4.67469 80.4657
lradius 26.073
lwrist 0.508495
lhand -23.1911 -13.5337
lfingers 7.12502
lthumb 3.25852 16.4212
rfemur -34.4842 6.68982 2.17741
rtibia 12.3036
rfoot -14.9789 -13.383
rtoes -36.3638
lfemur -21.9523 -10.8083 -15.3537
ltibia 15.5281
lfoot -14.3098 5.32305
ltoes -41.3963
459
root 0.0270036 17.9438 19.9928 -156.816 -2.14765 180.982
lowerback -22.5699 -3.08276 -8.48463
upperback 0.747695 -2.10381 0.932476
thorax 13.9723 -1.69583 5.19765
lowerneck 0.635986 -7.0102 -0.106302
upperneck 25.7282 -7.55392 1.37122
head 7.88553 -2.55375 0.116905
rclavicle -8.15017e-015 -3.10104e-014
rhumerus -43.6369 -17.1526 -75.151
rradius 29.8995
rwrist -0.454444
rhand -9.54148 -56.0188
rfingers 7.12502
rthumb 16.4251 634.657
lclavicle -8.15017e-015 -3.10104e-014
lhumerus -28.4142 -4.65386 80.4757
lradius 26.2165
lwrist 0.350365
lhand -23.3469 -13.0357
lfingers 7.12502
lthumb 3.1081 16.9214
rfemur -34.3493 6.75603 2.14979
rtibia 12.0953
rfoot -14.6437 -13.3944
rtoes -37.0878
lfemur -21.9983 -10.9222 -15.1861
ltibia 15.7427
lfoot -14.6112 5.27812
ltoes -41.1413
460
root 0.0724561 17.9381 19.9614 -156.769 -2.30395 180.958
lowerback -22.7062 -3.07011 -8.41395
upperback 0.764494 -2.08773 0.890844
thorax 14.0627 -1.68538 5.11196
lowerneck 0.516363 -7.00154 0.062975
upperneck 25.9499 -7.49364 1.21752
head 7.96738 -2.50494 0.0385033
rclavicle 1.94809e-014 9.54166e-015
rhumerus -43.8791 -17.6779 -74.7843
rradius 29.9938
rwrist 0.690696
rhand -7.42677 -57.9537
rfingers 7.12502
rthumb 18.4603 632.902
lclavicle 1.94809e-014 9.54166e-015
lhumerus -28.3201 -4.71294 80.3802
lradius 26.1649
lwrist 0.302569
lhand -23.3019 -12.9014
lfingers 7.12502
lthumb 3.15155 17.055
rfemur -34.2371 6.60156 2.25931
rtibia 11.9579
rfoot -14.2975 -12.9404
rtoes -37.7622
lfemur -21.9682 -11.2082 -14.9725
ltibia 15.7744
lfoot -14.7272 5.53533
ltoes -41.3875
461
root 0.120457 17.9288 19.927 -156.74 -2.43126 180.959
lowerback -22.816 -3.06544 -8.34489
upperback 0.792382 -2.08756 0.890093
thorax 14.1558 -1.68395 5.06947
lowerneck 0.187707 -7.02889 0.131339
upperneck 26.3071 -7.48786 1.06929
head 8.13825 -2.4881 -0.0331384
rclavicle -6.95746e-015 -1.98785e-014
rhumerus -44.0003 -17.7563 -74.6856
rradius 30.0877
rwrist 0.713726
rhand -7.57878 -56.2154
rfingers 7.12502
rthumb 18.3141 634.627
lclavicle -6.95746e-015 -1.98785e-014
lhumerus -28.1507 -4.55998 80.2711
lradius 26.0561
lwrist 0.166053
lhand -23.0254 -13.5774
lfingers 7.12502
lthumb 3.41853 16.3749
rfemur -34.1425 6.44226 2.44604
rtibia 11.9078
rfoot -14.405 -12.4001
rtoes -37.603
lfemur -21.9069 -11.3864 -14.736
ltibia 15.7486
lfoot -14.7674 5.75225
ltoes -41.8705
